HIERARCHY
ROOT mixamorig:Hips
{
	OFFSET -0.000007 99.791939 0.000048
	CHANNELS 6 Xposition Yposition Zposition Xrotation Yrotation Zrotation
	JOINT mixamorig:Spine
	{
		OFFSET -0.000008 9.923462 -1.227335
		CHANNELS 3 Xrotation Yrotation Zrotation
		JOINT mixamorig:Spine1
		{
			OFFSET -0.001162 11.645439 -1.422341
			CHANNELS 3 Xrotation Yrotation Zrotation
			JOINT mixamorig:Spine2
			{
				OFFSET -0.001082 13.360199 -1.626459
				CHANNELS 3 Xrotation Yrotation Zrotation
				JOINT mixamorig:Neck
				{
					OFFSET -0.001294 15.032486 0.792904
					CHANNELS 3 Xrotation Yrotation Zrotation
					JOINT mixamorig:Head
					{
						OFFSET -0.000902 10.321838 3.142429
						CHANNELS 3 Xrotation Yrotation Zrotation
						JOINT mixamorig:HeadTop_End
						{
							OFFSET -0.001464 18.474670 6.636400
							CHANNELS 3 Xrotation Yrotation Zrotation
							End Site
							{
								OFFSET -0.001724 19.630463 0.000000
							}
						}
					}
				}
				JOINT mixamorig:LeftShoulder
				{
					OFFSET 6.105025 9.110947 0.705547
					CHANNELS 3 Xrotation Yrotation Zrotation
					JOINT mixamorig:LeftArm
					{
						OFFSET 12.655060 -0.264816 -2.600928
						CHANNELS 3 Xrotation Yrotation Zrotation
						JOINT mixamorig:LeftForeArm
						{
							OFFSET 27.404680 0.002457 -0.000007
							CHANNELS 3 Xrotation Yrotation Zrotation
							JOINT mixamorig:LeftHand
							{
								OFFSET 27.614456 0.002457 0.000007
								CHANNELS 3 Xrotation Yrotation Zrotation
								JOINT mixamorig:LeftHandThumb1
								{
									OFFSET 3.789009 -2.166824 3.002973
									CHANNELS 3 Xrotation Yrotation Zrotation
									JOINT mixamorig:LeftHandThumb2
									{
										OFFSET 3.675636 -2.121704 2.122010
										CHANNELS 3 Xrotation Yrotation Zrotation
										JOINT mixamorig:LeftHandThumb3
										{
											OFFSET 3.394531 -1.959473 1.959746
											CHANNELS 3 Xrotation Yrotation Zrotation
											JOINT mixamorig:LeftHandThumb4
											{
												OFFSET 2.679504 -1.546753 1.546951
												CHANNELS 3 Xrotation Yrotation Zrotation
												End Site
												{
													OFFSET 2.400604 -1.530380 1.964751
												}
											}
										}
									}
								}
								JOINT mixamorig:LeftHandIndex1
								{
									OFFSET 12.266647 -0.230743 2.822040
									CHANNELS 3 Xrotation Yrotation Zrotation
									JOINT mixamorig:LeftHandIndex2
									{
										OFFSET 3.891968 0.000336 0.000037
										CHANNELS 3 Xrotation Yrotation Zrotation
										JOINT mixamorig:LeftHandIndex3
										{
											OFFSET 3.415161 0.000305 -0.000010
											CHANNELS 3 Xrotation Yrotation Zrotation
											JOINT mixamorig:LeftHandIndex4
											{
												OFFSET 3.077995 0.000275 -0.000009
												CHANNELS 3 Xrotation Yrotation Zrotation
												End Site
												{
													OFFSET 3.077988 0.000259 0.000131
												}
											}
										}
									}
								}
								JOINT mixamorig:LeftHandMiddle1
								{
									OFFSET 12.775536 0.001129 0.000014
									CHANNELS 3 Xrotation Yrotation Zrotation
									JOINT mixamorig:LeftHandMiddle2
									{
										OFFSET 3.613968 0.000320 0.000000
										CHANNELS 3 Xrotation Yrotation Zrotation
										JOINT mixamorig:LeftHandMiddle3
										{
											OFFSET 3.459763 0.000305 -0.000028
											CHANNELS 3 Xrotation Yrotation Zrotation
											JOINT mixamorig:LeftHandMiddle4
											{
												OFFSET 3.680191 0.000320 0.000031
												CHANNELS 3 Xrotation Yrotation Zrotation
												End Site
												{
													OFFSET 3.680191 0.000351 -0.004814
												}
											}
										}
									}
								}
								JOINT mixamorig:LeftHandRing1
								{
									OFFSET 12.147018 0.011063 -2.216636
									CHANNELS 3 Xrotation Yrotation Zrotation
									JOINT mixamorig:LeftHandRing2
									{
										OFFSET 3.601181 0.000320 0.000033
										CHANNELS 3 Xrotation Yrotation Zrotation
										JOINT mixamorig:LeftHandRing3
										{
											OFFSET 3.307320 0.000305 -0.000023
											CHANNELS 3 Xrotation Yrotation Zrotation
											JOINT mixamorig:LeftHandRing4
											{
												OFFSET 3.660118 0.000320 0.000000
												CHANNELS 3 Xrotation Yrotation Zrotation
												End Site
												{
													OFFSET 3.660103 0.000229 0.005616
												}
											}
										}
									}
								}
								JOINT mixamorig:LeftHandPinky1
								{
									OFFSET 10.908218 -0.225174 -4.725837
									CHANNELS 3 Xrotation Yrotation Zrotation
									JOINT mixamorig:LeftHandPinky2
									{
										OFFSET 4.136658 0.000351 0.001166
										CHANNELS 3 Xrotation Yrotation Zrotation
										JOINT mixamorig:LeftHandPinky3
										{
											OFFSET 2.594826 0.000244 -0.001180
											CHANNELS 3 Xrotation Yrotation Zrotation
											JOINT mixamorig:LeftHandPinky4
											{
												OFFSET 2.923874 0.000244 0.000018
												CHANNELS 3 Xrotation Yrotation Zrotation
												End Site
												{
													OFFSET 2.923851 0.000275 -0.003346
												}
											}
										}
									}
								}
							}
						}
					}
				}
				JOINT mixamorig:RightShoulder
				{
					OFFSET -6.106495 9.109970 0.705565
					CHANNELS 3 Xrotation Yrotation Zrotation
					JOINT mixamorig:RightArm
					{
						OFFSET -12.655020 -0.267136 -2.600890
						CHANNELS 3 Xrotation Yrotation Zrotation
						JOINT mixamorig:RightForeArm
						{
							OFFSET -27.404675 -0.002365 0.000019
							CHANNELS 3 Xrotation Yrotation Zrotation
							JOINT mixamorig:RightHand
							{
								OFFSET -27.614464 -0.002396 0.000031
								CHANNELS 3 Xrotation Yrotation Zrotation
								JOINT mixamorig:RightHandThumb1
								{
									OFFSET -3.788620 -2.167480 3.002977
									CHANNELS 3 Xrotation Yrotation Zrotation
									JOINT mixamorig:RightHandThumb2
									{
										OFFSET -3.675247 -2.122314 2.122009
										CHANNELS 3 Xrotation Yrotation Zrotation
										JOINT mixamorig:RightHandThumb3
										{
											OFFSET -3.394188 -1.960129 1.959755
											CHANNELS 3 Xrotation Yrotation Zrotation
											JOINT mixamorig:RightHandThumb4
											{
												OFFSET -2.679230 -1.547195 1.546953
												CHANNELS 3 Xrotation Yrotation Zrotation
												End Site
												{
													OFFSET -2.398781 -1.531693 1.965949
												}
											}
										}
									}
								}
								JOINT mixamorig:RightHandIndex1
								{
									OFFSET -12.266594 -0.232895 2.822051
									CHANNELS 3 Xrotation Yrotation Zrotation
									JOINT mixamorig:RightHandIndex2
									{
										OFFSET -3.891968 -0.000336 0.000040
										CHANNELS 3 Xrotation Yrotation Zrotation
										JOINT mixamorig:RightHandIndex3
										{
											OFFSET -3.415161 -0.000305 -0.000006
											CHANNELS 3 Xrotation Yrotation Zrotation
											JOINT mixamorig:RightHandIndex4
											{
												OFFSET -3.077988 -0.000275 0.000006
												CHANNELS 3 Xrotation Yrotation Zrotation
												End Site
												{
													OFFSET -3.077980 0.000229 -0.008454
												}
											}
										}
									}
								}
								JOINT mixamorig:RightHandMiddle1
								{
									OFFSET -12.775528 -0.001114 0.000025
									CHANNELS 3 Xrotation Yrotation Zrotation
									JOINT mixamorig:RightHandMiddle2
									{
										OFFSET -3.613968 -0.000320 0.000005
										CHANNELS 3 Xrotation Yrotation Zrotation
										JOINT mixamorig:RightHandMiddle3
										{
											OFFSET -3.459763 -0.000305 -0.000025
											CHANNELS 3 Xrotation Yrotation Zrotation
											JOINT mixamorig:RightHandMiddle4
											{
												OFFSET -3.680191 -0.000320 0.000034
												CHANNELS 3 Xrotation Yrotation Zrotation
												End Site
												{
													OFFSET -3.680168 -0.000031 0.012581
												}
											}
										}
									}
								}
								JOINT mixamorig:RightHandRing1
								{
									OFFSET -12.147003 0.008942 -2.216624
									CHANNELS 3 Xrotation Yrotation Zrotation
									JOINT mixamorig:RightHandRing2
									{
										OFFSET -3.601196 -0.000320 0.000037
										CHANNELS 3 Xrotation Yrotation Zrotation
										JOINT mixamorig:RightHandRing3
										{
											OFFSET -3.307312 -0.000290 -0.000019
											CHANNELS 3 Xrotation Yrotation Zrotation
											JOINT mixamorig:RightHandRing4
											{
												OFFSET -3.660118 -0.000320 0.000002
												CHANNELS 3 Xrotation Yrotation Zrotation
												End Site
												{
													OFFSET -3.660110 0.000107 0.002180
												}
											}
										}
									}
								}
								JOINT mixamorig:RightHandPinky1
								{
									OFFSET -10.908173 -0.227081 -4.725826
									CHANNELS 3 Xrotation Yrotation Zrotation
									JOINT mixamorig:RightHandPinky2
									{
										OFFSET -4.136642 -0.000366 0.000029
										CHANNELS 3 Xrotation Yrotation Zrotation
										JOINT mixamorig:RightHandPinky3
										{
											OFFSET -2.594841 -0.000229 -0.000036
											CHANNELS 3 Xrotation Yrotation Zrotation
											JOINT mixamorig:RightHandPinky4
											{
												OFFSET -2.923874 -0.000259 0.000021
												CHANNELS 3 Xrotation Yrotation Zrotation
												End Site
												{
													OFFSET -2.923820 0.000336 -0.012876
												}
											}
										}
									}
								}
							}
						}
					}
				}
			}
		}
	}
	JOINT mixamorig:LeftUpLeg
	{
		OFFSET 9.124458 -6.656387 -0.055378
		CHANNELS 3 Xrotation Yrotation Zrotation
		JOINT mixamorig:LeftLeg
		{
			OFFSET 0.244681 -40.595421 -0.515619
			CHANNELS 3 Xrotation Yrotation Zrotation
			JOINT mixamorig:LeftFoot
			{
				OFFSET -0.244669 -42.047928 -2.059156
				CHANNELS 3 Xrotation Yrotation Zrotation
				JOINT mixamorig:LeftToeBase
				{
					OFFSET 0.373535 -7.208548 13.966561
					CHANNELS 3 Xrotation Yrotation Zrotation
					JOINT mixamorig:LeftToe_End
					{
						OFFSET -0.142059 -0.175224 9.997455
						CHANNELS 3 Xrotation Yrotation Zrotation
						End Site
						{
							OFFSET -0.142060 -0.175223 9.997459
						}
					}
				}
			}
		}
	}
	JOINT mixamorig:RightUpLeg
	{
		OFFSET -9.124448 -6.656403 -0.055378
		CHANNELS 3 Xrotation Yrotation Zrotation
		JOINT mixamorig:RightLeg
		{
			OFFSET -0.244680 -40.595459 -0.514290
			CHANNELS 3 Xrotation Yrotation Zrotation
			JOINT mixamorig:RightFoot
			{
				OFFSET 0.244670 -42.047859 -2.060535
				CHANNELS 3 Xrotation Yrotation Zrotation
				JOINT mixamorig:RightToeBase
				{
					OFFSET -0.373535 -7.208539 13.966558
					CHANNELS 3 Xrotation Yrotation Zrotation
					JOINT mixamorig:RightToe_End
					{
						OFFSET 0.141798 -0.175009 9.997463
						CHANNELS 3 Xrotation Yrotation Zrotation
						End Site
						{
							OFFSET 0.141798 -0.175009 9.997467
						}
					}
				}
			}
		}
	}
}
MOTION
Frames: 4
Frame Time: 0.033333
-0.326380 98.988930 -54.429859 9.527013 356.894296 2.703797 6.503820 1.680604 2.294378 -1.362523 0.318263 -2.375864 -1.353593 0.298356 -2.385516 1.257115 -1.852656 0.838052 6.487573 -8.150363 1.247306 0.000002 0.000000 -0.000000 -0.371505 7.812195 -0.201034 -31.556895 16.749791 -35.701607 0.017977 -74.217068 0.013615 20.575537 14.368286 16.671310 -1.540388 3.690012 6.142322 5.190234 23.965044 1.873398 -0.579579 1.574942 2.538726 -0.000001 -0.000004 0.000004 0.050259 0.832749 -6.912977 0.085126 1.081690 -9.007004 0.001074 0.122671 -1.016599 -0.000000 -0.000001 0.000000 0.038889 0.732893 -6.085002 0.006407 0.298238 -2.472176 0.009130 0.355801 -2.949590 0.000001 -0.000002 0.000000 0.011744 0.403303 -3.339968 0.085090 1.081484 -9.007297 0.011847 0.405697 -3.363799 -0.000003 -0.000001 0.000000 0.742228 5.148904 -8.935096 0.072856 -3.014519 -9.512331 0.000585 0.117189 -0.752813 0.000002 -0.000001 0.000000 0.532294 7.992707 10.833623 31.391853 31.777073 49.548538 -0.002579 27.327336 0.000624 6.057926 0.550931 8.421413 -1.852724 -3.589499 -6.598294 4.637878 -8.645758 -0.227237 -1.271603 0.126211 -2.097205 0.000002 0.000001 0.000001 0.017974 -0.500170 4.103660 0.075957 -1.025874 8.453422 0.006738 -0.305974 2.511612 0.000001 -0.000003 0.000000 0.017941 -0.499672 4.103658 0.075953 -1.026360 8.453423 0.006740 -0.305974 2.511609 -0.000002 -0.000001 0.000001 0.017976 -0.500270 4.103660 0.242864 -1.824016 15.155783 0.006719 -0.305986 2.511621 0.000002 0.000001 -0.000003 0.017965 -0.500071 4.103660 0.135840 -1.369466 11.322818 0.006756 -0.307180 2.511601 0.000004 -0.000002 -0.000001 -17.195433 -11.226305 -2.450680 12.294226 6.392744 3.865852 -1.594624 16.032302 -6.327846 -2.533183 -0.000018 0.000001 0.000000 -0.000000 0.000000 -20.518286 4.379526 5.952495 48.342395 2.053030 -6.477471 15.607829 -5.537041 1.526789 -44.918947 -0.140527 0.284300 0.000001 0.000000 0.000000 
-0.606596 98.721794 -57.712963 9.025450 358.768745 2.054287 7.684766 -0.553923 3.379118 -1.188839 -0.040466 -2.118053 -1.191410 -0.059977 -2.116085 1.365635 -2.003725 0.890238 7.522126 -8.891918 1.866997 -0.000001 -0.000000 0.000000 -0.166587 5.885332 -0.384429 -34.678633 12.006375 -35.080924 0.027828 -79.648742 0.023243 21.246890 14.731253 15.314532 -1.540383 3.690023 6.142330 5.190221 23.965042 1.873392 -0.579578 1.574942 2.538730 0.000003 -0.000001 0.000010 0.056575 0.883357 -7.335514 0.102335 1.185236 -9.877334 0.001858 0.161230 -1.336075 0.000001 0.000005 0.000003 0.044767 0.786134 -6.528819 0.010128 0.374862 -3.107777 0.011694 0.402627 -3.338234 -0.000000 -0.000002 -0.000003 0.013897 0.438798 -3.634549 0.102296 1.185048 -9.877630 0.014874 0.454305 -3.767305 0.000000 0.000002 -0.000000 0.812855 5.232077 -9.715941 0.090610 -2.911040 -10.381421 0.001401 0.165883 -1.156272 -0.000003 -0.000004 -0.000001 0.552714 7.192467 10.844695 32.178374 31.949241 47.113938 -0.002472 26.467231 0.000587 3.045636 -0.101680 9.381738 -1.851562 -3.587154 -6.594523 4.637782 -8.642097 -0.226958 -1.272308 0.129597 -2.096506 -0.000001 -0.000000 -0.000003 0.018761 -0.510903 4.191899 0.081886 -1.064998 8.778306 0.007277 -0.317979 2.610169 -0.000002 -0.000000 0.000000 0.018725 -0.510404 4.191901 0.081886 -1.065482 8.778308 0.007273 -0.317980 2.610164 0.000000 -0.000000 0.000000 0.018764 -0.511003 4.191899 0.255962 -1.871630 15.561440 0.007237 -0.317963 2.610155 0.000002 -0.000001 -0.000002 0.018750 -0.510803 4.191900 0.143292 -1.406185 11.630539 0.007282 -0.319171 2.610148 0.000000 -0.000001 0.000002 -16.462380 -10.453908 -2.808482 16.222352 4.575571 3.135500 -5.831846 16.308349 -4.766860 -3.118420 -0.000007 0.000001 0.000000 0.000002 -0.000000 -25.673952 3.664624 7.066057 53.301748 3.796594 -7.341397 20.016395 -3.607399 2.872627 -47.615827 1.440271 -2.646607 -0.000000 0.000001 -0.000000 
-0.745805 98.437546 -60.458832 7.629290 359.124380 1.361179 9.116092 -2.902788 4.281783 -1.108763 -0.425643 -1.668865 -1.121540 -0.441798 -1.653735 1.677994 -2.025512 1.048796 9.115671 -8.611867 1.201564 0.000001 0.000000 -0.000001 0.021978 4.077660 -0.726422 -37.158111 7.787229 -33.908812 0.037562 -82.301088 0.032834 21.502612 14.413461 13.073515 -1.540391 3.690026 6.142335 5.190229 23.965044 1.873400 -0.579576 1.574942 2.538728 0.000006 0.000003 0.000006 0.065026 0.946654 -7.864897 0.126118 1.314609 -10.967779 0.003155 0.209512 -1.736271 -0.000002 -0.000000 0.000001 0.052719 0.852758 -7.084886 0.016000 0.470755 -3.904041 0.015363 0.461270 -3.825153 0.000004 -0.000002 -0.000001 0.016860 0.483221 -4.003596 0.126087 1.314426 -10.968115 0.019141 0.515142 -4.272777 0.000002 0.000001 -0.000000 0.902951 5.334888 -10.694487 0.115072 -2.781809 -11.470120 0.002902 0.226868 -1.661754 0.000005 -0.000001 0.000001 0.590629 7.040974 9.676011 31.613309 31.877552 46.711052 -0.002346 25.188086 0.000510 1.643434 0.668496 8.376871 -1.841778 -3.566978 -6.562234 4.636919 -8.610948 -0.224493 -1.278036 0.158596 -2.090309 0.000001 -0.000000 -0.000001 0.017149 -0.488469 4.007396 0.069735 -0.983155 8.099087 0.006185 -0.292886 2.404117 -0.000002 0.000003 -0.000002 0.017114 -0.487970 4.007395 0.069734 -0.983640 8.099086 0.006181 -0.292887 2.404117 0.000001 0.000002 -0.000003 0.017153 -0.488570 4.007396 0.228970 -1.771974 14.713404 0.006146 -0.292885 2.404114 -0.000000 0.000000 0.000003 0.017139 -0.488370 4.007395 0.127925 -1.329341 10.987206 0.006188 -0.294105 2.404104 0.000002 0.000001 0.000000 -12.429495 -12.157303 -3.837996 17.468890 4.060209 3.238212 -9.645213 20.128970 -3.399667 -2.356656 0.000432 -0.109936 -0.000000 0.000000 -0.000000 -29.155479 3.758297 6.913120 56.670496 4.228805 -6.490670 24.836007 0.565618 2.644301 -50.235416 3.115458 -5.600872 0.000001 0.000003 -0.000000 
-0.785848 97.912651 -62.929642 7.554923 359.303822 1.326654 10.163756 -5.024125 5.070225 -1.085728 -0.775120 -1.206514 -1.105659 -0.785699 -1.179837 2.429617 -1.905333 0.574720 9.698726 -8.572917 0.281270 -0.000001 -0.000001 0.000001 0.146585 2.279702 -0.817818 -38.362758 4.058787 -33.218164 0.044203 -83.427544 0.039385 21.223017 13.740080 11.423453 -1.540383 3.690028 6.142332 5.190229 23.965045 1.873400 -0.579584 1.574937 2.538723 0.000000 0.000003 0.000001 0.070359 0.984456 -8.181155 0.141508 1.391669 -11.619322 0.004080 0.238332 -1.975372 -0.000003 0.000002 -0.000000 0.057780 0.892523 -7.417085 0.020138 0.528028 -4.379784 0.017791 0.496288 -4.116042 0.000001 0.000003 -0.000001 0.018785 0.509787 -4.224092 0.141456 1.391459 -11.619602 0.021948 0.551480 -4.574795 -0.000000 0.000000 0.000001 0.957626 5.395596 -11.279241 0.130859 -2.704827 -12.120538 0.004049 0.263284 -1.963721 0.000000 0.000001 -0.000000 0.642607 7.210403 7.988450 30.618587 32.290857 47.335410 -0.002161 23.435996 0.000436 0.369381 2.040205 7.017053 -1.837375 -3.557841 -6.547606 4.636540 -8.596814 -0.223382 -1.280629 0.171744 -2.087503 -0.000000 -0.000000 0.000002 0.014990 -0.456758 3.746521 0.054199 -0.867155 7.138640 0.004782 -0.257416 2.112746 0.000001 -0.000001 0.000002 0.014958 -0.456259 3.746521 0.054194 -0.867640 7.138641 0.004779 -0.257418 2.112747 -0.000002 0.000001 0.000001 0.014994 -0.456858 3.746521 0.193381 -1.630385 13.514338 0.004750 -0.257412 2.112751 -0.000000 -0.000001 0.000001 0.014984 -0.456657 3.746522 0.107681 -1.220417 10.077498 0.004789 -0.258617 2.112735 0.000000 -0.000001 -0.000000 -9.596481 -11.079538 -5.811409 20.001651 3.593648 3.678179 -14.003124 20.312221 0.927957 -3.070970 0.021918 -1.353535 0.000000 -0.000000 0.000000 -33.109431 4.278257 5.956660 59.151200 5.149756 -5.684290 28.287491 4.992228 2.706581 -52.313648 4.948303 -9.072144 0.000000 -0.000001 0.000000 
